<svg xmlns="http://www.w3.org/2000/svg" viewBox="0 0 32 32"><g fill="#d85b53" class="color000000 svgShape" data-name="Layer 2"><path d="M10.05 28H5a1 1 0 01-1-1V21.9a1 1 0 00-2 0V27a3 3 0 003 3h5.05a1 1 0 000-2zM29 20.9a1 1 0 00-1 1V27a1 1 0 01-1 1H21.95a1 1 0 000 2H27a3 3 0 003-3V21.9A1 1 0 0029 20.9zM3 11a1 1 0 001-1V5A1 1 0 015 4h5.05a1 1 0 000-2H5A3 3 0 002 5v5A1 1 0 003 11zM27 2H21.95a1 1 0 000 2H27a1 1 0 011 1v5a1 1 0 002 0V5A3 3 0 0027 2z" class="color000000 svgShape"/><circle cx="12.5" cy="12.5" r="1.5" class="color000000 svgShape"/><circle cx="19.5" cy="12.5" r="1.5" class="color000000 svgShape"/><path d="M21.724,18.311a1,1,0,0,0-1.413-.035,6.251,6.251,0,0,1-8.622,0,1,1,0,1,0-1.378,1.45,8.249,8.249,0,0,0,11.378,0A1,1,0,0,0,21.724,18.311Z" class="color000000 svgShape"/></g></svg>